<?xml version="1.0" encoding="utf-8"?>
<!-- Generator: Adobe Illustrator 19.2.1, SVG Export Plug-In . SVG Version: 6.00 Build 0)  -->
<svg version="1.1" id="レイヤー_5" xmlns="http://www.w3.org/2000/svg" xmlns:xlink="http://www.w3.org/1999/xlink" x="0px"
	 y="0px" viewBox="0 0 305 50" style="enable-background:new 0 0 305 50;" xml:space="preserve">
<style type="text/css">
	.st0{fill:#165E80;}
	.st1{fill:#B2282E;}
</style>
<title>けんゆ</title>
<g>
	<g>
		<g>
			<g>
				<path class="st0" d="M25,0C11.2,0,0,11.2,0,25c0,13.8,11.2,25,25,25s25-11.2,25-25C50,11.2,38.8,0,25,0z M25,46.2
					C13.3,46.2,3.8,36.7,3.8,25S13.3,3.8,25,3.8c9.7,0,18,6.6,20.5,15.5H33.1V7.7l-8.1,5l-8.1-5v11.6H8.8V23h14.4v10.7h3.8V23h8.8
					v5.3c0,5.6-4.8,10.2-10.6,10.2S14.4,34,14.4,28.4h-3.8c0,7.7,6.4,13.9,14.4,13.9S39.4,36,39.4,28.4V23h6.8
					c0.1,0.7,0.1,1.3,0.1,2C46.2,36.7,36.7,46.2,25,46.2z M20.6,19.3v-4.9l4.4,2.7l4.4-2.7v4.9H20.6z"/>
				<circle class="st0" cx="18.8" cy="27.9" r="2"/>
				<circle class="st0" cx="31.2" cy="27.9" r="2"/>
			</g>
		</g>
		<g>
			<g>
				<path class="st0" d="M82,42.6v-3.2c1.4,0,2.3-0.2,3-0.6c0.6-0.4,1.1-1.1,1.4-2.2l-5.2-13.4h4.6l2.5,9.5h0.1l2.8-9.5h4.4l-5,13.6
					c-0.8,2.1-1.8,3.6-3.1,4.5C86.1,42.2,84.3,42.6,82,42.6z"/>
				<path class="st0" d="M115.2,24.8c1.2-1.2,2.9-1.8,5-1.8c2.1,0,3.8,0.6,5,1.8c1.2,1.2,1.8,2.9,1.8,5.1s-0.6,3.9-1.8,5.1
					c-1.2,1.2-2.8,1.8-5,1.8c-2.1,0-3.8-0.6-5-1.8s-1.8-2.9-1.8-5.1S114,26,115.2,24.8z M118.2,33c0.4,0.6,1.1,1,1.9,1
					c0.9,0,1.5-0.3,1.9-1c0.4-0.6,0.6-1.7,0.6-3.1c0-1.4-0.2-2.5-0.6-3.1c-0.4-0.6-1.1-1-1.9-1c-0.9,0-1.5,0.3-1.9,1
					c-0.4,0.6-0.6,1.7-0.6,3.1C117.6,31.3,117.8,32.4,118.2,33z"/>
				<path class="st0" d="M129.1,23.2h3.9l0.1,1.7h0.1c1-1.3,2.2-2,3.5-2c0.8,0,1.4,0.1,1.9,0.4c0.5,0.3,0.9,0.8,1.3,1.6h0.1
					c1.2-1.3,2.4-2,3.7-2c1.5,0,2.5,0.4,3.2,1.2c0.7,0.8,1,2.1,1,4v8.5h-4.1v-8.3c0-0.9-0.1-1.5-0.3-1.8c-0.2-0.3-0.6-0.5-1.2-0.5
					c-0.4,0-0.8,0.2-1.2,0.5c-0.4,0.3-0.6,0.7-0.6,1v9.1h-4.1v-8.3c0-0.9-0.1-1.5-0.3-1.8c-0.2-0.3-0.6-0.5-1.1-0.5
					c-0.4,0-0.8,0.2-1.2,0.5c-0.4,0.3-0.6,0.7-0.6,1v9.1h-4.2V23.2z"/>
				<path class="st0" d="M151.8,24.8c1.2-1.2,2.9-1.8,5-1.8c2.1,0,3.8,0.6,5,1.8c1.2,1.2,1.8,2.9,1.8,5.1s-0.6,3.9-1.8,5.1
					c-1.2,1.2-2.8,1.8-5,1.8c-2.1,0-3.8-0.6-5-1.8c-1.2-1.2-1.8-2.9-1.8-5.1S150.6,26,151.8,24.8z M154.9,33c0.4,0.6,1.1,1,1.9,1
					c0.9,0,1.5-0.3,1.9-1c0.4-0.6,0.6-1.7,0.6-3.1c0-1.4-0.2-2.5-0.6-3.1c-0.4-0.6-1.1-1-1.9-1c-0.9,0-1.5,0.3-1.9,1
					c-0.4,0.6-0.6,1.7-0.6,3.1C154.3,31.3,154.5,32.4,154.9,33z"/>
				<path class="st0" d="M175,17.2h4.2v19.4h-3.9l-0.1-1.7h-0.1c-1.1,1.3-2.5,2-4.1,2c-1.5,0-2.8-0.6-3.8-1.8
					c-1-1.2-1.5-2.9-1.5-5.1c0-2.2,0.5-4,1.4-5.2c1-1.2,2.2-1.8,3.8-1.8c1.4,0,2.7,0.5,3.9,1.6h0.1V17.2z M169.9,29.9
					c0,1.3,0.2,2.3,0.7,2.9c0.5,0.6,1.1,0.9,1.9,0.9c0.7,0,1.3-0.2,1.8-0.7c0.5-0.5,0.8-1,0.8-1.6v-3.2c0-0.6-0.3-1.1-0.8-1.6
					c-0.5-0.5-1.1-0.7-1.8-0.7C170.7,26,169.9,27.3,169.9,29.9z"/>
				<path class="st0" d="M187.3,22.9c2.3,0,3.8,0.4,4.8,1.2c0.9,0.8,1.4,2.2,1.4,4v8.5h-3.9l-0.1-1.8h-0.1c-1.1,1.4-2.5,2-4.2,2
					c-1.2,0-2.2-0.4-2.9-1.1c-0.8-0.8-1.1-1.8-1.1-3c0-3.1,2.3-4.7,7-4.7h1.2v-0.3c0-0.7-0.2-1.1-0.5-1.4c-0.3-0.3-0.9-0.4-1.7-0.4
					c-1.5,0-3.2,0.3-5.2,0.9v-3C183.8,23.2,185.6,22.9,187.3,22.9z M189.4,30.5h-1.2c-2.1,0-3.1,0.6-3.1,1.9c0,0.5,0.1,0.8,0.4,1.1
					c0.3,0.3,0.6,0.4,1.1,0.4c0.8,0,1.5-0.3,2-0.8c0.5-0.5,0.8-1.2,0.8-2.1V30.5z"/>
				<path class="st0" d="M195.7,29.9c0-2.3,0.6-4,1.7-5.2c1.1-1.2,2.8-1.8,4.9-1.8c1.5,0,2.9,0.2,4.3,0.5v3.2
					c-1.3-0.4-2.5-0.6-3.6-0.6c-1,0-1.7,0.3-2.2,0.9c-0.5,0.6-0.7,1.6-0.7,2.9c0,1.4,0.3,2.4,0.8,3c0.5,0.6,1.3,0.9,2.4,0.9
					c1.1,0,2.3-0.2,3.6-0.6v3.2c-1.4,0.3-2.8,0.5-4.2,0.5c-2.2,0-3.9-0.6-5.1-1.8C196.3,34,195.7,32.2,195.7,29.9z"/>
				<path class="st0" d="M213.3,17.2v7.4h0.1c1.2-1.1,2.5-1.7,3.9-1.7c1.6,0,2.7,0.5,3.4,1.4c0.7,0.9,1,2.5,1,4.8v7.5h-4.1v-7
					c0-1.4-0.1-2.3-0.4-2.8c-0.3-0.5-0.8-0.7-1.5-0.7c-0.6,0-1.1,0.3-1.6,0.8c-0.5,0.5-0.8,1.1-0.8,1.6v8h-4.2V17.2H213.3z"/>
				<path class="st0" d="M223.9,20.6v-3.4h4.4v3.4H223.9z M223.9,36.6V23.2h4.4v13.4H223.9z"/>
				<path class="st0" d="M254.5,22.9c2.3,0,3.8,0.4,4.8,1.2c0.9,0.8,1.4,2.2,1.4,4v8.5h-3.9l-0.1-1.8h-0.1c-1.1,1.4-2.5,2-4.2,2
					c-1.2,0-2.2-0.4-2.9-1.1c-0.8-0.8-1.1-1.8-1.1-3c0-3.1,2.3-4.7,7-4.7h1.2v-0.3c0-0.7-0.2-1.1-0.5-1.4c-0.3-0.3-0.9-0.4-1.7-0.4
					c-1.5,0-3.2,0.3-5.2,0.9v-3C250.9,23.2,252.7,22.9,254.5,22.9z M256.5,30.5h-1.2c-2.1,0-3.1,0.6-3.1,1.9c0,0.5,0.1,0.8,0.4,1.1
					c0.3,0.3,0.6,0.4,1.1,0.4c0.8,0,1.5-0.3,2-0.8c0.5-0.5,0.8-1.2,0.8-2.1V30.5z"/>
				<path class="st0" d="M262.9,23.2h4l0.1,1.7h0.1c1.1-1.3,2.5-2,4-2c1.6,0,2.9,0.6,3.8,1.8c1,1.2,1.4,2.9,1.4,5.2
					c0,2.2-0.5,3.9-1.5,5.1c-1,1.2-2.3,1.9-3.8,1.9c-1.4,0-2.7-0.5-3.8-1.6h-0.1v7h-4.2V23.2z M272.1,29.9c0-2.6-0.9-3.9-2.6-3.9
					c-0.7,0-1.3,0.2-1.8,0.7c-0.5,0.5-0.8,1-0.8,1.6v3.2c0,0.6,0.3,1.1,0.8,1.6c0.5,0.5,1.1,0.7,1.8,0.7c0.8,0,1.4-0.3,1.9-1
					C271.9,32.2,272.1,31.2,272.1,29.9z"/>
				<path class="st0" d="M284,22.9c2.3,0,3.8,0.4,4.8,1.2c0.9,0.8,1.4,2.2,1.4,4v8.5h-3.9l-0.1-1.8h-0.1c-1.1,1.4-2.5,2-4.2,2
					c-1.2,0-2.2-0.4-2.9-1.1c-0.8-0.8-1.1-1.8-1.1-3c0-3.1,2.3-4.7,7-4.7h1.2v-0.3c0-0.7-0.2-1.1-0.5-1.4c-0.3-0.3-0.9-0.4-1.7-0.4
					c-1.5,0-3.2,0.3-5.2,0.9v-3C280.5,23.2,282.3,22.9,284,22.9z M286.1,30.5h-1.2c-2.1,0-3.1,0.6-3.1,1.9c0,0.5,0.1,0.8,0.4,1.1
					c0.3,0.3,0.6,0.4,1.1,0.4c0.8,0,1.5-0.3,2-0.8c0.5-0.5,0.8-1.2,0.8-2.1V30.5z"/>
				<path class="st0" d="M292.5,23.2h4l0.1,1.7h0.1c1.1-1.3,2.5-2,4.1-2c1.6,0,2.7,0.4,3.4,1.3c0.7,0.9,1,2.4,1,4.5v7.8h-4.1v-7.7
					c0-1-0.1-1.8-0.4-2.1c-0.3-0.4-0.8-0.6-1.5-0.6c-0.6,0-1.2,0.2-1.7,0.7c-0.5,0.5-0.8,1-0.8,1.6v8.1h-4.1V23.2z"/>
			</g>
			<path class="st1" d="M237.1,17.2l0.7,4.5l3.8,0v7.4c0,1.5-0.2,2.6-0.7,3.3c-0.5,0.6-1.3,1-2.3,1c-1.5,0-3.1-0.4-4.7-1.1V36
				c1.6,0.6,3.4,0.9,5.4,0.9c2.4,0,4.2-0.6,5.3-1.7c1.1-1.1,1.7-2.9,1.7-5.5V17.2L237.1,17.2z"/>
			<path class="st1" d="M115.1,17.2v4.5h-5v15.2h-4.5V21.7h-5v-4.5H115.1z"/>
		</g>
	</g>
	<polygon class="st1" points="77.4,16.9 72.9,16.9 69.2,27.4 65.4,16.9 61,16.9 58.3,36.6 62.8,36.6 64.1,25.3 64.2,25.3 68.3,36.6 
		70,36.6 74.2,25.3 74.2,25.3 75.5,36.6 80,36.6 	"/>
</g>
</svg>
